<svg xmlns="http://www.w3.org/2000/svg" width="220" height="220" viewBox="0 0 220 220" role="img"><title>Lead qualification</title><rect x="68" y="31" width="84" height="49" rx="13" fill="#eef3f7"/><path d="M80 50h50" fill="none" stroke="#1e5d86" stroke-width="3.5" stroke-linecap="butt" stroke-linejoin="round"/><path d="M80 62h60" fill="none" stroke="#1e5d86" stroke-width="3.5" stroke-linecap="butt" stroke-linejoin="round"/><path d="M18 104h87v68q0 20-20 20H38q-20 0-20-20Z" fill="#e6ecf0" stroke="none" stroke-width="0" stroke-linecap="round" stroke-linejoin="round"/><path d="M117 104h87v68q0 20-20 20h-47q-20 0-20-20Z" fill="#e6ecf0" stroke="none" stroke-width="0" stroke-linecap="round" stroke-linejoin="round"/><rect x="47" y="119" width="29" height="8" rx="4" fill="#ffffff"/><rect x="146" y="119" width="29" height="8" rx="4" fill="#ffffff"/><path d="M49 153l9.600000000000001 9.600000000000001l17.6 -19.200000000000003" fill="none" stroke="#1e5d86" stroke-width="6.4" stroke-linecap="round" stroke-linejoin="round"/><path d="M151 146l19.599999999999998 19.599999999999998m0 -19.599999999999998l-19.599999999999998 19.599999999999998" fill="none" stroke="#d6df23" stroke-width="5.6" stroke-linecap="round" stroke-linejoin="round"/></svg>