<svg xmlns="http://www.w3.org/2000/svg" width="220" height="220" viewBox="0 0 220 220" role="img"><title>Voice customization</title><rect x="24" y="45" width="172" height="60" rx="30" fill="#e6ecf0"/><circle cx="54" cy="75" r="30" fill="#d6df23"/><path d="M47 65l15 10-15 10Z" fill="#ffffff" stroke="none" stroke-width="0" stroke-linecap="round" stroke-linejoin="round"/><path d="M99 73v4" fill="none" stroke="#d6df23" stroke-width="4" stroke-linecap="round" stroke-linejoin="round"/><path d="M109.5 69v12" fill="none" stroke="#d6df23" stroke-width="4" stroke-linecap="round" stroke-linejoin="round"/><path d="M120 63.5v23" fill="none" stroke="#d6df23" stroke-width="4" stroke-linecap="round" stroke-linejoin="round"/><path d="M130.5 67.5v15" fill="none" stroke="#d6df23" stroke-width="4" stroke-linecap="round" stroke-linejoin="round"/><path d="M141 68v14" fill="none" stroke="#d6df23" stroke-width="4" stroke-linecap="round" stroke-linejoin="round"/><path d="M151.5 63v24" fill="none" stroke="#d6df23" stroke-width="4" stroke-linecap="round" stroke-linejoin="round"/><path d="M162 69v12" fill="none" stroke="#d6df23" stroke-width="4" stroke-linecap="round" stroke-linejoin="round"/><rect x="24" y="117" width="172" height="60" rx="30" fill="#e6ecf0"/><circle cx="54" cy="147" r="30" fill="#1e5d86"/><path d="M47 137l15 10-15 10Z" fill="#ffffff" stroke="none" stroke-width="0" stroke-linecap="round" stroke-linejoin="round"/><path d="M99 145v4" fill="none" stroke="#1e5d86" stroke-width="4" stroke-linecap="round" stroke-linejoin="round"/><path d="M109.5 141v12" fill="none" stroke="#1e5d86" stroke-width="4" stroke-linecap="round" stroke-linejoin="round"/><path d="M120 135.5v23" fill="none" stroke="#1e5d86" stroke-width="4" stroke-linecap="round" stroke-linejoin="round"/><path d="M130.5 139.5v15" fill="none" stroke="#1e5d86" stroke-width="4" stroke-linecap="round" stroke-linejoin="round"/><path d="M141 140v14" fill="none" stroke="#1e5d86" stroke-width="4" stroke-linecap="round" stroke-linejoin="round"/><path d="M151.5 135v24" fill="none" stroke="#1e5d86" stroke-width="4" stroke-linecap="round" stroke-linejoin="round"/><path d="M162 141v12" fill="none" stroke="#1e5d86" stroke-width="4" stroke-linecap="round" stroke-linejoin="round"/></svg>